<?xml version="1.0" encoding="UTF-8" standalone="no"?> <svg xmlns="http://www.w3.org/2000/svg" xmlns:xlink="http://www.w3.org/1999/xlink" xmlns:serif="http://www.serif.com/" width="100%" height="100%" viewBox="0 0 500 35" version="1.1" xml:space="preserve" style="fill-rule:evenodd;clip-rule:evenodd;stroke-linejoin:round;stroke-miterlimit:2;"> <g transform="matrix(1,0,0,1,-710.001,-61.2466)"> <g transform="matrix(1,0,0,1.72284,0,0)"> <g transform="matrix(0.760312,0,0,0.441314,643.54,-85.9271)"> <g> <g transform="matrix(1,0,0,1,112.17,286.836)"> <path d="M0,-3.818L7.357,7.006L19.466,-10.824L4.75,-10.824L-0.004,-3.818L0,-3.818Z" style="fill:rgb(241,90,41);fill-rule:nonzero;"></path> </g> <g transform="matrix(-0.562168,0.827023,0.827023,0.562168,130.607,313.482)"> <path d="M-3.665,-15.885L9.429,-15.885L12.544,-8.023L4.271,4.147L-3.665,-15.885Z" style="fill:rgb(241,90,41);fill-rule:nonzero;"></path> </g> <g transform="matrix(-16.5832,24.4198,24.4198,16.5832,110.463,296.303)"> <path d="M-0.085,0.207L0.805,0.207L1.085,-0.207L0.195,-0.207L-0.085,0.207Z" style="fill:url(#_Linear1);fill-rule:nonzero;"></path> </g> <g transform="matrix(-22.8536,-33.6502,-33.6502,22.8536,111.813,300.978)"> <path d="M-0.003,-0.15L0.643,-0.15L0.847,0.15L0.201,0.15L-0.003,-0.15Z" style="fill:url(#_Linear2);fill-rule:nonzero;"></path> </g> <g opacity="0.5"> <g transform="matrix(1,0,0,1,109.549,297.646)"> <path d="M0,10.864L-7.379,0L7.381,0L0,10.864Z" style="fill:rgb(241,90,41);fill-rule:nonzero;"></path> </g> </g> <g transform="matrix(8.73115,-10.7407,-10.7407,-8.73115,107.392,299.405)"> <path d="M0.806,0.454L-0.139,0.373L0.533,-0.455L0.806,0.454Z" style="fill:url(#_Linear3);fill-rule:nonzero;"></path> </g> </g> <g> <g transform="matrix(1,0,0,1,178.469,276.006)"> <path d="M0,43.328L0,0L32.68,0L32.68,8.478L9.47,8.478L9.47,17.268L29.896,17.268L29.896,25.749L9.47,25.749L9.47,34.846L32.988,34.846L32.988,43.328L0,43.328Z" style="fill:white;fill-rule:nonzero;"></path> </g> <g transform="matrix(1,0,0,1,-9.09495e-13,0.06)"> <rect x="265.125" y="275.946" width="9.53" height="43.328" style="fill:white;"></rect> </g> <g transform="matrix(1,0,0,1,285.488,276.006)"> <path d="M0,43.328L0,0L32.681,0L32.681,8.478L9.47,8.478L9.47,17.268L29.896,17.268L29.896,25.749L9.47,25.749L9.47,34.846L32.99,34.846L32.99,43.328L0,43.328Z" style="fill:white;fill-rule:nonzero;"></path> </g> <g transform="matrix(1,0,0,1,357.348,276.006)"> <path d="M0,43.328L-20.985,15.783L-20.985,43.328L-30.39,43.328L-30.39,0L-21.602,0L-1.3,26.676L-1.3,0L8.107,0L8.107,43.328L0,43.328Z" style="fill:white;fill-rule:nonzero;"></path> </g> <g transform="matrix(1,0,0,1,420.938,276.006)"> <path d="M0,43.328L0,0L32.686,0L32.686,8.478L9.475,8.478L9.475,17.268L29.894,17.268L29.894,25.749L9.475,25.749L9.475,34.846L32.994,34.846L32.994,43.328L0,43.328Z" style="fill:white;fill-rule:nonzero;"></path> </g> <g transform="matrix(1,0,0,1,246.244,276.006)"> <path d="M0,43.328L11.142,43.328L0.556,27.851C6.062,25.81 9.841,21.416 9.841,14.421L9.841,14.299C9.841,5.383 3.712,0 -6.5,0L-26.304,0L-26.304,43.328L-16.775,43.328L-16.775,29.461L-16.769,29.461L-16.781,18.514L-16.775,18.525L-16.775,8.603L-7.303,8.603C-2.663,8.603 0.185,10.706 0.185,14.791L0.185,14.917C0.185,18.569 -2.479,21.045 -7.116,21.045L-15.071,21.045L0,43.328Z" style="fill:white;fill-rule:nonzero;"></path> </g> <g transform="matrix(1,0,0,1,155.778,319.334)"> <path d="M0,-43.328L-17.7,-43.328L-17.7,0L-8.17,0L-8.17,-3.841L-8.173,-3.841L-8.17,-23.256L-8.17,-34.725L-0.807,-34.725C3.963,-34.725 6.934,-32.433 6.934,-28.163L6.934,-28.041C6.934,-24.324 4.148,-21.48 -0.618,-21.48L-6.325,-21.48L-0.572,-13.01C8.979,-13.137 16.59,-18.322 16.59,-28.225L16.59,-28.351C16.59,-37.2 10.337,-43.328 0,-43.328" style="fill:white;fill-rule:nonzero;"></path> </g> <g transform="matrix(1,0,0,1,407.838,289.108)"> <path d="M0,17.121C-3.4,20.202 -6.428,22.179 -11.371,22.179C-18.8,22.179 -23.937,15.985 -23.937,8.561L-23.937,8.436C-23.937,1.009 -18.671,-5.057 -11.371,-5.057C-7.036,-5.057 -3.632,-3.199 -0.293,-0.167L-0.257,-0.209L4.969,-7.901C1.09,-11.449 -3.668,-13.846 -11.309,-13.846C-24.618,-13.846 -33.899,-3.757 -33.899,8.561L-33.899,8.686C-33.899,21.127 -24.431,30.967 -11.682,30.967C-4.032,30.967 0.759,28.458 4.933,24.382L0,17.121Z" style="fill:white;fill-rule:nonzero;"></path> </g> </g> <g> <g transform="matrix(1,0,0,1,574.758,315.005)"> <path d="M0,-34.411L-26.43,-34.411L-26.43,-19.619L-2.785,-19.619L-2.785,-15.162L-26.43,-15.162L-26.43,0.005L0.305,0.005L0.305,4.458L-31.318,4.458L-31.318,-38.869L0,-38.869L0,-34.411Z" style="fill:white;fill-rule:nonzero;"></path> </g> <g transform="matrix(1,0,0,1,603.164,313.768)"> <path d="M0,-32.247L-9.903,-10.151L9.844,-10.151L0,-32.247ZM22.1,5.694L16.84,5.694L11.765,-5.757L-11.822,-5.757L-16.957,5.694L-21.971,5.694L-2.228,-37.941L2.356,-37.941L22.1,5.694Z" style="fill:white;fill-rule:nonzero;"></path> </g> <g transform="matrix(1,0,0,1,633.803,319.463)"> <path d="M0,-43.327L4.893,-43.327L4.893,-4.52L29.279,-4.52L29.279,0L0,0L0,-43.327Z" style="fill:white;fill-rule:nonzero;"></path> </g> <g transform="matrix(1,0,0,1,684.808,276.136)"> <path d="M0,43.327L-4.954,43.327L-4.954,4.522L-19.5,4.522L-19.5,0L14.546,0L14.546,4.522L0,4.522L0,43.327Z" style="fill:white;fill-rule:nonzero;"></path> </g> <g transform="matrix(1,0,0,1,727.021,276.136)"> <path d="M0,43.327L-4.954,43.327L-4.954,26.184L-22.964,0L-17.02,0L-2.412,21.666L12.318,0L18.014,0L0,26.12L0,43.327Z" style="fill:white;fill-rule:nonzero;"></path> </g> <g transform="matrix(1,0,0,1,472.639,312.628)"> <path d="M0,-29.477L-5.206,-29.477L4.776,-14.814L-5.303,0L-0.097,0L9.97,-14.808L9.966,-14.814L9.97,-14.818L0,-29.477Z" style="fill:white;fill-rule:nonzero;"></path> </g> <g transform="matrix(1,0,0,1,503.577,297.365)"> <path d="M0,22.098L0,-16.708L13.37,-16.708C20.361,-16.708 24.449,-13.49 24.449,-8.105C24.449,-2.473 19.804,0.869 13.306,0.869L9.3,0.869L12.298,5.265L12.379,5.265L23.892,22.098L29.896,22.098L17.641,4.397C24.449,3.157 29.396,-1.049 29.396,-8.291C29.396,-16.09 23.271,-21.229 13.739,-21.229L-4.893,-21.229L-4.893,22.098L0,22.098Z" style="fill:white;fill-rule:nonzero;"></path> </g> </g> </g> </g> </g> <defs> <linearGradient id="_Linear1" x1="0" y1="0" x2="1" y2="0" gradientUnits="userSpaceOnUse" gradientTransform="matrix(-0.561795,0.827277,0.827277,0.561795,0.780906,-0.413643)"><stop offset="0" style="stop-color:rgb(248,154,58);stop-opacity:1"></stop><stop offset="1" style="stop-color:rgb(241,90,41);stop-opacity:1"></stop></linearGradient> <linearGradient id="_Linear2" x1="0" y1="0" x2="1" y2="0" gradientUnits="userSpaceOnUse" gradientTransform="matrix(-0.999942,-0.0107799,-0.0107799,0.999942,0.843902,0.00454872)"><stop offset="0" style="stop-color:rgb(241,90,41);stop-opacity:1"></stop><stop offset="1" style="stop-color:rgb(199,74,32);stop-opacity:1"></stop></linearGradient> <linearGradient id="_Linear3" x1="0" y1="0" x2="1" y2="0" gradientUnits="userSpaceOnUse" gradientTransform="matrix(1,0,0,-1,0,-2.40749e-05)"><stop offset="0" style="stop-color:rgb(241,90,41);stop-opacity:1"></stop><stop offset="1" style="stop-color:rgb(199,74,32);stop-opacity:1"></stop></linearGradient> </defs> </svg> 